<svg xmlns="http://www.w3.org/2000/svg" viewBox="0 0 512 512"><path fill-rule="evenodd" clip-rule="evenodd" fill="#da2a1d" d="M256 144c-61.8 0-112 50.3-112 112 0 61.8 50.3 112 112 112s112-50.3 112-112c0-61.8-50.3-112-112-112zm0 192c-44.2 0-80-35.8-80-80s35.8-80 80-80 80 35.8 80 80-35.8 80-80 80zm0-224c8.8 0 16-7.2 16-16V64c0-8.8-7.2-16-16-16s-16 7.2-16 16v32c0 8.8 7.2 16 16 16zm0 288c-8.8 0-16 7.2-16 16v32c0 8.8 7.2 16 16 16s16-7.2 16-16v-32c0-8.8-7.2-16-16-16zm124.4-245.8l22.7-22.7c6.3-6.2 6.3-16.3 0-22.6-6.2-6.3-16.3-6.3-22.6 0l-22.6 22.5c-6.2 6.3-6.2 16.4 0 22.7 6.3 6.2 16.4 6.2 22.6 0zM131.6 357.8L109 380.5c-6.3 6.2-6.3 16.3 0 22.6s16.3 6.3 22.6 0l22.6-22.5c6.2-6.3 6.2-16.4 0-22.7-6.3-6.2-16.4-6.2-22.6 0zM112 256c0-8.8-7.2-16-16-16H64c-8.8 0-16 7.2-16 16s7.2 16 16 16h32c8.8 0 16-7.2 16-16zm336-16h-32c-8.8 0-16 7.2-16 16s7.2 16 16 16h32c8.8 0 16-7.2 16-16s-7.2-16-16-16zm-316.5-85.8c6.3 6.2 16.4 6.2 22.7 0 6.2-6.3 6.2-16.4 0-22.7L131.5 109c-6.2-6.3-16.3-6.3-22.6 0-6.3 6.2-6.3 16.3 0 22.5l22.5 22.7zm249 203.6c-6.3-6.2-16.4-6.2-22.7 0-6.2 6.3-6.2 16.4 0 22.6l22.7 22.7c6.2 6.3 16.3 6.3 22.6 0s6.3-16.3 0-22.6l-22.5-22.6z"/></svg>