<svg xmlns="http://www.w3.org/2000/svg" viewBox="0 0 135.46666 135.46667"><path d="M67.8 24.8c-2 0-3.4 1.5-3.4 3.3v10.3C49.6 40 38 52.5 38 67.7 38 83 49.7 95.5 64.5 97.2v21l-9.8-9.4c-1.4-1.3-3.5-1-4.7.3-1.3 1.4-1.2 3.6.2 4.8l15.4 14c0 .2.2.2.4.3.2.2.3.4.5.4l.7.2h1.2c.2 0 .4 0 .6-.2l.6-.3h.4l15.3-14.3c1.3-1.2 1.5-3.3.2-4.7-1.2-1.4-3.3-1.5-4.7-.3L71 118V97C86 95.5 97.5 83 97.5 67.7S86 40 71 38.3V28c0-1.7-1.4-3.2-3.2-3.2zm-3.4 19.5v47C53 89.5 44 79.6 44 67.6c0-12 9-21.8 20.4-23.4zm6.7 0C82.7 46 91.5 55.8 91.5 67.7c0 12-8.8 21.8-20.3 23.5v-47z" fill="#da2a1d"/></svg>