<?xml version="1.0" encoding="UTF-8"?>
<svg
   xmlns:svg="http://www.w3.org/2000/svg"
   xmlns="http://www.w3.org/2000/svg"
   width="512"
   height="512"
   viewBox="0 0 135.46666 135.46667">

  <g transform="translate(0,-161.53332)">
    <path
       style="fill:#da2a1d;fill-opacity:1;stroke-width:0.39453462"
       d="M 256.12305 93.625 C 249.15361 93.625 243.50195 99.271089 243.50195 106.24609 L 243.50195 144.70117 C 187.61159 150.93769 144 198.47476 144 256 C 144 313.52524 187.61159 361.06231 243.50195 367.29883 L 243.50195 446.24805 L 206.33398 411.02734 C 201.10917 406.41836 193.19617 406.93481 188.61328 412.17188 C 184.00233 417.42194 184.59982 425.41059 189.82422 430.01953 L 247.78516 483.36914 C 248.25386 483.76289 248.82066 483.91022 249.33789 484.25586 C 250.02833 484.6989 250.66784 485.14212 251.43164 485.46289 C 252.24598 485.78339 253.0589 485.93253 253.89648 486.08008 C 254.63625 486.22748 255.35286 486.375 256.0918 486.375 C 256.97874 486.375 257.79109 486.20397 258.6543 486.03125 C 259.39406 485.88347 260.08435 485.73621 260.79883 485.46484 C 261.61237 485.14434 262.32664 484.6506 263.06641 484.1582 C 263.53473 483.8377 264.07841 483.68988 264.52148 483.29492 L 322.26367 429.72266 C 327.47704 425.08964 327.94563 417.09122 323.30078 411.86523 C 318.66659 406.66408 310.51869 406.19626 305.31836 410.83008 L 268.74219 445.44727 L 268.74219 367.26953 C 324.51527 360.9219 368 313.44138 368 256 C 368 198.55862 324.51527 151.07809 268.74219 144.73047 L 268.74219 106.24609 C 268.74219 99.270711 263.09132 93.625 256.12305 93.625 z M 243.50195 167.37695 L 243.50195 344.62305 C 200.0509 338.52311 166.5 301.10396 166.5 256 C 166.5 210.89604 200.0509 173.47689 243.50195 167.37695 z M 268.74219 167.41211 C 312.07473 173.6177 345.5 210.98055 345.5 256 C 345.5 301.01945 312.07473 338.3823 268.74219 344.58789 L 268.74219 167.41211 z"
       transform="matrix(0.26458333,0,0,0.26458333,0,161.53332)"
        />
  </g>
</svg>
