<svg xmlns="http://www.w3.org/2000/svg" viewBox="0 0 512 512"><path fill-rule="evenodd" clip-rule="evenodd" fill="#da2a1d" d="M177.6 288c7.5-36.5 39.7-64 78.4-64s71 27.5 78.4 64h32c-7.8-54-54-96-110.4-96-56.3 0-102.5 42-110.4 96h32zM256 160c8.8 0 16-7.2 16-16v-32c0-8.8-7.2-16-16-16s-16 7.2-16 16v32c0 8.8 7.2 16 16 16zm147-3c-6.2-6.3-16.3-6.3-22.6 0l-22.6 22.5c-6.2 6.3-6.2 16.4 0 22.7 6.3 6.2 16.4 6.2 22.6 0l22.7-22.7c6.3-6.2 6.3-16.3 0-22.6zm-248.8 22.5L131.6 157c-6.3-6.3-16.4-6.3-22.7 0-6.3 6.2-6.3 16.3 0 22.5l22.6 22.7c6.2 6.2 16.3 6.2 22.6 0 6.2-6.3 6.2-16.4 0-22.7zM352 320H160c-8.8 0-16 7.2-16 16s7.2 16 16 16h192c8.8 0 16-7.2 16-16s-7.2-16-16-16zm-32 64H192c-8.8 0-16 7.2-16 16s7.2 16 16 16h128c8.8 0 16-7.2 16-16s-7.2-16-16-16z"/></svg>