<svg xmlns="http://www.w3.org/2000/svg" viewBox="0 0 16 16">
	<path fill-rule="evenodd" d="
		M1,8a7,7 0 1,0 14,0a7,7 0 1,0 -14,0
		M8.41 4.34c.1.06.1.06.2 0 .06-.08.23-.16.3-.16.02 0 .06.08.1.18.06.17.06.18.2.16.07-.02.17 0 .25.03l.13.05-.08.16c-.14.26-.1.73.12 1.24.02.05 0 .07-.08.08l-.1.02v.3c.04.35 0 .46-.1.46-.07 0-.08.02-.1.24 0 .13-.04.3-.07.38-.06.15-.1.16-.3.1-.07 0-.08 0-.1.1-.02.06 0 .2.02.28.02.17.12.27.63.74.13.13.18.2.24.42.1.3.1.32.23.3.16-.04.12-.18-.13-.57-.36-.56-.46-.9-.33-1.2.07-.18.2-.24.5-.27.27-.03.4.02.53.2.12.16.16.3.2.7 0 .16.04.35.06.42.07.17.07.16-.1.1-.24-.12-.37-.25-.56-.57l-.2-.3c-.07 0 .06.3.28.62.32.48.35.55.35.78 0 .4-.22.63-.64.67-.18.02-.24.03-.25.08 0 .05.04.06.15.08.22.04.28.08.34.2.2.4-.07.92-.6 1.23-.15.06-.34.2-.45.3-.1.1-.22.16-.26.16-.05 0-.1.03-.17.06-.1.06-.1.06-.14 0-.04-.04-.06-.1-.06-.12 0-.04 0-.04-.06 0-.05.04-.06.04-.1-.02-.04-.03-.06-.1-.06-.15 0-.08 0-.08-.04-.04-.1.05-.13-.05-.1-.3 0-.2 0-.24.12-.34l.12-.1h.37c.3.03.37.02.44-.04.1-.08.14-.2.1-.33-.03-.08-.1-.14-.32-.23-.36-.17-.5-.28-.58-.46-.08-.17-.1-.46-.02-.7.03-.1.05-.17.03-.17l-.1.2c-.07.15-.1.28-.1.42 0 .2 0 .2-.1.18-.08-.02-.2-.1-.32-.16-.1-.07-.1 0-.03.1.1.15.1.2-.05.33-.15.13-.54.26-1 .35-.23.05-.4.1-.47.16-.07.07-.2.1-.3.14-.3.06-.3.05-.3-.05-.02-.1-.03-.1-.1-.1-.08.03-.1 0-.1-.1-.03-.1-.05-.15-.1-.14-.06.03-.05-.3.02-.45.12-.22.27-.25.73-.13l.28.07.26-.1c.2-.08.23-.1.22-.17l-.02-.3c0-.2.02-.27.08-.35.12-.15.28-.24.54-.28.22-.04.23-.05.18-.1-.04-.02-.2-.1-.36-.14-.23-.08-.32-.13-.44-.25-.08-.1-.15-.18-.15-.2 0-.03.1-.07.18-.1.18-.04.7-.25.68-.27l-.33.08c-.46.13-1 .13-1.26 0-.2-.07-.34-.2-.34-.26s-.06-.06-.2 0c-.1.02-.14.02-.23-.05-.06-.04-.14-.07-.2-.07-.1 0-.13-.04-.07-.16.05-.08.05-.1 0-.1-.08 0-.1-.1-.04-.2.07-.1.07-.1 0-.1s-.07-.04.02-.17c.16-.25.4-.33.63-.22.06.04.17.16.26.28.1.13.2.23.27.25l.1.02s0-.13-.03-.27c-.06-.4-.15-.6-.33-.77-.1-.08-.17-.2-.2-.25 0-.05-.03-.12-.07-.15-.08-.07-.06-.13.07-.18.06-.03.07-.05.04-.08-.07-.06-.05-.1.1-.15.1-.06.1-.08.07-.12-.03-.06 0-.1.26-.1.22-.04.4.02.45.14.03.03.06.23.08.43.03.4.04.45.25.7.08.1.14.18.14.2l-.17.25-.18.24.14-.12c.43-.35.66-.45 1.16-.5.5-.06.52-.1.08-.1-.3-.03-.4-.04-.46-.1-.06-.05-.06-.06 0-.13.04-.04.14-.1.22-.15.08-.04.12-.08.1-.1-.03 0-.15.06-.28.13-.17.1-.26.12-.32.1-.2-.04-.3-.26-.18-.43.08-.1.14-.1.1.02-.04.22.17.3.47.17.07-.04.18-.06.25-.05.08 0 .1 0 .12-.07 0-.07-.04-.07-.42.02-.18.05-.2.05-.26-.04-.03-.04-.06-.1-.06-.15 0-.04 0-.12-.02-.17-.04-.13.04-.2.3-.33.6-.25.57-.24.57-.35 0-.07.03-.16.07-.22.06-.1.03-.1.3.06z
		M8.1 5c-.02 0-.03.04-.03.07 0 .06.03.06.17.05.1 0 .18-.03.18-.03.02-.04-.2-.14-.25-.14-.03 0-.06 0-.07.02z
	"/>
</svg>
