<svg xmlns="http://www.w3.org/2000/svg" viewBox="0 0 512 512"><path fill="#da2a1d" d="M208 64c8.8 0 16-7.2 16-16V16c0-8.8-7.2-16-16-16s-16 7.2-16 16v32c0 8.8 7.2 16 16 16zm124.4 42.2L355 83.5c6.3-6.2 6.3-16.3 0-22.6-6.2-6.3-16.3-6.3-22.6 0l-22.6 22.5c-6.2 6.3-6.2 16.4 0 22.7 6.3 6.2 16.4 6.2 22.6 0zM16 224h32c8.8 0 16-7.2 16-16s-7.2-16-16-16H16c-8.8 0-16 7.2-16 16s7.2 16 16 16zm336-16c0 8.8 7.2 16 16 16h32c8.8 0 16-7.2 16-16s-7.2-16-16-16h-32c-8.8 0-16 7.2-16 16zM83.5 106.2c6.3 6.2 16.4 6.2 22.7 0 6.2-6.3 6.2-16.4 0-22.7L83.5 61c-6.2-6.3-16.3-6.3-22.6 0-6.3 6.2-6.3 16.3 0 22.5l22.5 22.7zM400 256c-5.3 0-10.6.4-15.8 1-16.8-22.8-39-40.2-64.4-51.4C318.4 145 268.8 96 208 96c-61.8 0-112 50.3-112 112 0 17.4 4.3 33.8 11.5 48.4C48 259 0 307.8 0 368c0 61.8 50.3 112 112 112 13.7 0 27-2.5 39.7-7.3C180.7 498 217.5 512 256 512s75.3-14 104.3-39.3c12.6 4.8 26 7.3 39.7 7.3 61.8 0 112-50.3 112-112s-50.3-112-112-112zM208 128c39.8 0 72.6 29.2 78.7 67.3-10-2-20.2-3.3-30.7-3.3-46 0-88.5 19.8-118.4 53.3-6-11.2-9.6-23.8-9.6-37.3 0-44.2 35.8-80 80-80zm192 320c-17 0-33-5.5-46-14.7-23.4 28.3-58.4 46.7-98 46.7s-74.6-18.4-98-46.7c-13 9.2-29 14.7-46 14.7-44.2 0-80-35.8-80-80s35.8-80 80-80c7.8 0 15 1.5 22 3.5 3 .8 5.8 1.5 8.4 2.6 4.4-8.5 10-16.3 16-23.7 23.4-28 58.2-46.3 97.6-46.3 10 0 19.8 1.5 29.3 3.7 10.5 2.5 20.5 6.3 29.8 11.3 23.4 12.4 42.5 31.5 54.5 55 9.4-3.8 19.7-6 30.5-6 44.2 0 80 35.8 80 80s-35.8 80-80 80z"/></svg>