<svg xmlns="http://www.w3.org/2000/svg" viewBox="0 0 512 512"><path fill="#da2a1d" d="M435 262.2c5-3.7 10-7.2 14.3-11.6 13.2-13.3 23.3-29.4 29.8-48 2.2-5.7.7-12.2-3.7-16.5-4.3-4.3-10.8-5.8-16.6-3.7-35.4 12.5-73.7 4-100-22.3-26.2-26.2-34.7-64.5-22.2-100 2-5.7.6-12-3.8-16.5-4.3-4.3-10.8-5.8-16.6-3.8-18.4 6.6-34.5 16.6-47.7 29.8-33.6 33.5-44 81-32.5 123.8-43.2 5.6-82 28.5-108 63.8-5.2-.6-10.5-1-15.8-1C50.2 256 0 306.3 0 368s50.2 112 112 112c13.7 0 27-2.5 39.7-7.3C180.7 498 217.5 512 256 512s75.3-14 104.3-39.3c12.6 4.8 26 7.3 39.7 7.3 61.7 0 112-50.3 112-112 0-49.4-32.4-91-77-105.8zm-144-170c2.5-2.6 5.2-5 8-7.3-2.2 36 10.8 71.3 37.2 97.7 26.3 26.3 61.7 39.3 97.7 37-14 17.7-33 28.6-53.2 33.3-27.4-34.8-67.6-56.7-112-60.2-12.2-34-5-73.5 22-100.6zM400 448c-17 0-33-5.5-46-14.7-23.4 28.3-58.4 46.7-98 46.7s-74.6-18.4-98-46.7c-13 9.2-29 14.7-46 14.7-44.2 0-80-35.8-80-80s35.8-80 80-80c10.8 0 21 2.2 30.4 6 20.2-39.3 59.8-66.8 106.3-69.5 2.5 0 5-.5 7.3-.5 13 0 25.3 2 37 5.6 15.8 4.8 30.2 12.7 42.7 22.8 12 9.7 22 21.6 29.8 35 1.3 2.2 2.8 4.3 4 6.7 9.4-3.8 19.7-6 30.5-6 44.2 0 80 35.8 80 80s-35.8 80-80 80z"/></svg>