<svg xmlns="http://www.w3.org/2000/svg" viewBox="0 0 512 512"><path fill-rule="evenodd" clip-rule="evenodd" fill="#da2a1d" d="M326 443.7l-18-10.4c.6-3 1-6.3 1-9.6s-.4-6.5-1-9.6l18-10.3c8.5-5 11.3-15.8 6.5-24-5-8.6-15.7-11.5-24-6.6L290 383.7c-5-4.2-10.4-7.4-16.5-9.6v-21c0-9.7-8-17.6-17.7-17.6s-17.7 8-17.7 17.7v21c-6 2-11.6 5.4-16.5 9.6l-18-10.5c-8.6-4.8-19.4-2-24.3 6.5-5 8.5-2 19.3 6.5 24.2l18 10.3c-.6 3.2-1 6.4-1 9.7 0 3.3.4 6.5 1 9.6l-18 10.4c-8.5 5-11.4 15.7-6.5 24.2s15.7 11.2 24 6.3L222 464c5 4 10.4 7.3 16.5 9.4v21c0 9.7 8 17.6 17.7 17.6s17.7-8 17.7-17.6v-21c6-2 11.7-5.4 16.5-9.6l18.2 10.5c8.4 5 19.2 2 24-6.4 5-8.6 2-19.4-6.4-24.3zm-70-2.3c-9.8 0-17.7-8-17.7-17.7s8-17.7 17.7-17.7 17.7 8 17.7 17.7-8 17.7-17.7 17.7zm218.2-45l-12-3.4c-.4-3.8-1.3-7.4-3-11l8.8-8.7c4-4 4-10.8 0-15-4-4-10.8-4-15 0l-8.7 9c-3.4-1.7-7-2.7-11-3l-3-12c-1.6-5.6-7.4-9-13-7.5s-9 7.3-7.4 13l3 11.8c-1.5 1-3 2.3-4.4 3.7-1.4 1.4-2.6 3-3.6 4.4l-12-3.2c-5.5-1.5-11.3 2-12.8 7.4-1.5 5.6 1.8 11.3 7.4 12.8l12 3.2c.3 3.8 1.3 7.5 3 11l-9 8.8c-4 4-4 10.7.2 14.8 4 4 10.7 4.2 14.8 0l8.8-8.8c3.5 1.7 7.2 2.7 11 3l3.2 12c1.5 5.6 7.2 9 13 7.5 5.4-1.5 8.8-7.3 7.3-13l-3.3-12c1.5-1 3-2 4.5-3.5 1.3-1.4 2.5-3 3.6-4.5l12 3.2c5.5 1.5 11.3-1.8 12.8-7.4 1.5-5.5-2-11.2-7.4-12.8zm-36 6.5c-4 4-10.7 4-14.8 0-4-4-4-10.8 0-15 4-4 10.8-4 15 0 4 4.2 4 11 0 15zM119 342.4l-12 3.2c-1-1.5-2.2-3-3.6-4.5-1.4-1.3-3-2.5-4.5-3.6l3-12c1.6-5.5-1.7-11.3-7.2-12.8-5.7-1.5-11.4 2-13 7.5l-3.2 12c-3.8.3-7.4 1.3-11 3l-8.7-9c-4.2-4-11-4-15 0-4 4.2-4 11 0 15l8.8 8.8c-1.6 3.6-2.6 7.3-3 11l-12 3.2c-5.6 1.6-9 7.3-7.4 13 1.5 5.5 7.3 8.8 13 7.3l11.8-3.2c1 1.6 2.2 3 3.7 4.5 1.3 1.4 2.8 2.6 4.3 3.6l-3.2 12c-1.4 5.6 2 11.3 7.5 12.8 5.7 1.5 11.4-1.8 13-7.4l3-12c4-.3 7.6-1.3 11-3l9 9c4 4 10.6 4 14.8-.2 4-4 4-10.7 0-14.8l-9-8.8c1.8-3.5 2.8-7.2 3-11l12-3.2c5.7-1.5 9-7.2 7.5-13-1.5-5.4-7.2-8.8-13-7.3zM88.5 371c-4 4-10.8 4-15 0-4-4-4-10.8 0-15 4.2-4 11-4 15 0s4 11 0 15zM512 176c0-61.8-50.3-112-112-112-5.3 0-10.6.4-15.8 1-30-40.6-77-65-128.2-65s-98.3 24.4-128.2 65c-5.2-.6-10.5-1-15.8-1C50.2 64 0 114.3 0 176s50.3 112 112 112c13.7 0 27-2.5 39.7-7.3C180.7 306 217.5 320 256 320s75.3-14 104.3-39.3c12.6 4.8 26 7.3 39.7 7.3 61.8 0 112-50.3 112-112zm-158 65.3c-23.4 28.3-58.4 46.7-98 46.7s-74.6-18.4-98-46.7c-13 9.2-29 14.7-46 14.7-44.2 0-80-35.8-80-80s35.8-80 80-80c10.8 0 21 2.2 30.4 6 21.3-41.3 64-70 113.6-70s92.3 28.7 113.5 70c9.4-3.8 19.7-6 30.5-6 44.2 0 80 35.8 80 80s-35.8 80-80 80c-17 0-33-5.5-46-14.7z"/></svg>