<?xml version="1.0" standalone="no"?>
<!DOCTYPE svg PUBLIC "-//W3C//DTD SVG 20010904//EN"
 "http://www.w3.org/TR/2001/REC-SVG-20010904/DTD/svg10.dtd">
<svg version="1.0" xmlns="http://www.w3.org/2000/svg"
 width="16.000000pt" height="16.000000pt" viewBox="0 0 16.000000 16.000000"
 preserveAspectRatio="xMidYMid meet">
<metadata>
Created by potrace 1.11, written by Peter Selinger 2001-2013
</metadata>
<g transform="translate(0.000000,16.000000) scale(0.003571,-0.003571)"
fill="#000000" stroke="none">
<path d="M2091 4169 c-633 -67 -1192 -434 -1509 -991 -230 -407 -307 -915
-206 -1368 89 -395 265 -713 550 -991 168 -163 307 -261 509 -360 675 -329
1469 -242 2070 226 108 84 295 280 375 393 513 725 486 1682 -67 2372 -176
219 -386 387 -654 521 -337 168 -702 236 -1068 198z m264 -905 c24 -16 27 -16
48 4 20 19 67 42 87 42 4 0 16 -22 26 -50 18 -49 18 -50 54 -44 22 4 50 0 73
-10 l38 -15 -23 -43 c-38 -74 -24 -206 36 -349 5 -12 0 -18 -23 -22 l-30 -6 6
-79 c7 -101 0 -132 -31 -132 -21 0 -24 -5 -29 -67 -3 -38 -12 -86 -20 -108
-15 -42 -24 -45 -79 -31 -23 7 -27 5 -33 -24 -4 -18 -1 -52 6 -79 13 -46 39
-76 183 -208 37 -34 49 -54 67 -115 26 -87 30 -92 63 -84 43 11 33 49 -39 159
-101 155 -128 252 -92 339 19 46 53 64 139 72 77 9 113 -5 151 -56 33 -44 44
-86 52 -192 4 -48 13 -103 21 -122 19 -46 19 -45 -28 -24 -69 31 -104 65 -159
155 -29 47 -54 85 -57 85 -18 0 19 -80 81 -174 89 -135 97 -153 97 -218 0
-112 -62 -177 -179 -187 -51 -5 -67 -10 -69 -23 -2 -13 6 -18 35 -23 61 -10
79 -21 96 -58 53 -111 -18 -254 -169 -342 -38 -22 -93 -61 -122 -87 -29 -27
-61 -48 -72 -48 -12 0 -32 -8 -47 -17 -24 -16 -26 -16 -39 2 -8 10 -14 25 -14
33 0 12 -3 12 -16 1 -14 -11 -18 -10 -30 6 -8 10 -14 30 -14 43 0 21 -2 23
-16 11 -25 -20 -35 7 -31 80 3 58 6 66 37 94 l33 30 104 -6 c91 -4 106 -3 127
14 29 23 39 59 26 94 -7 20 -30 35 -87 62 -102 46 -141 77 -164 127 -22 50
-24 133 -4 199 8 26 12 47 9 47 -3 0 -17 -26 -32 -57 -18 -41 -26 -75 -27
-115 0 -56 -1 -57 -25 -51 -25 6 -61 24 -92 45 -27 19 -32 2 -9 -30 29 -41 27
-56 -15 -90 -42 -35 -151 -72 -282 -97 -62 -12 -106 -26 -130 -43 -20 -14 -57
-29 -82 -34 -82 -16 -85 -15 -88 15 -3 23 -7 26 -27 21 -22 -5 -25 -2 -31 34
-4 29 -10 39 -20 35 -20 -7 -19 89 1 127 33 64 77 73 206 40 l79 -20 68 28
c55 23 66 31 62 48 -3 10 -5 49 -5 86 0 52 5 73 21 95 33 45 78 70 150 83 60
11 65 14 49 26 -10 7 -54 25 -99 40 -65 21 -90 36 -123 71 -24 24 -43 49 -43
56 0 7 21 18 47 25 50 14 196 72 191 77 -2 2 -43 -8 -93 -22 -126 -35 -278
-36 -350 -4 -55 25 -95 57 -95 78 0 16 -17 17 -59 2 -28 -10 -37 -9 -61 10
-16 11 -40 21 -54 21 -33 0 -38 11 -21 43 12 23 12 27 -1 27 -23 0 -28 28 -10
55 20 30 20 35 1 35 -20 0 -19 8 7 45 46 69 116 92 178 60 16 -8 49 -41 74
-74 27 -35 58 -63 76 -69 16 -6 30 -9 30 -6 0 3 -5 38 -11 77 -17 108 -43 168
-94 216 -25 23 -48 54 -51 69 -4 15 -16 34 -27 43 -23 19 -16 36 21 50 19 7
22 13 14 21 -19 19 -14 28 24 44 28 12 33 18 24 29 -15 18 -1 25 65 32 62 7
110 -9 127 -41 6 -11 15 -67 19 -123 8 -111 13 -126 70 -195 22 -26 39 -49 39
-52 0 -3 -21 -36 -47 -73 l-48 -68 40 33 c120 98 186 128 324 143 140 15 147
23 24 29 -88 4 -116 9 -129 22 -17 16 -17 19 2 39 10 12 37 30 59 42 22 11 35
22 28 24 -7 3 -42 -12 -78 -32 -48 -27 -72 -35 -91 -31 -57 15 -82 76 -48 124
21 31 37 28 30 -6 -14 -61 44 -82 128 -47 21 9 52 15 69 13 24 -2 32 1 35 16
4 20 -10 20 -117 -6 -51 -12 -54 -12 -73 12 -10 13 -18 33 -17 44 1 12 -1 34
-6 49 -10 37 10 58 88 91 161 70 157 67 157 99 0 16 8 42 17 58 19 31 10 33
88 -17z"/>
<path d="M2267 3083 c-4 -3 -7 -14 -7 -23 0 -15 7 -17 48 -12 26 2 49 6 50 8
6 4 -56 34 -71 34 -7 0 -17 -3 -20 -7z"/>
</g>
</svg>
