<svg xmlns="http://www.w3.org/2000/svg" viewBox="0 0 512 512"><path fill-rule="evenodd" clip-rule="evenodd" fill="#da2a1d" d="M400 160c-5.3 0-10.6.4-15.8 1-30-40.6-77-65-128.2-65s-98.3 24.4-128.2 65c-5.2-.6-10.5-1-15.8-1C50.2 160 0 210.3 0 272c0 61.8 50.3 112 112 112 13.7 0 27-2.5 39.7-7.3C180.7 402 217.5 416 256 416s75.3-14 104.3-39.3c12.6 4.8 26 7.3 39.7 7.3 61.8 0 112-50.3 112-112 0-61.8-50.3-112-112-112zm0 192c-17 0-33-5.5-46-14.7-23.4 28.3-58.4 46.7-98 46.7s-74.6-18.4-98-46.7c-13 9.2-29 14.7-46 14.7-44.2 0-80-35.8-80-80s35.8-80 80-80c10.8 0 21 2.2 30.4 6 21.3-41.3 64-70 113.6-70s92.3 28.7 113.5 70c9.4-3.8 19.7-6 30.5-6 44.2 0 80 35.8 80 80s-35.8 80-80 80z"/></svg>