<svg xmlns="http://www.w3.org/2000/svg" viewBox="0 0 512 512"><path fill-rule="evenodd" clip-rule="evenodd" fill="#da2a1d" d="M400 64c-5.3 0-10.6.4-15.8 1-30-40.6-77-65-128.2-65s-98.3 24.4-128.2 65c-5.2-.6-10.5-1-15.8-1C50.2 64 0 114.3 0 176s50.3 112 112 112c13.7 0 27-2.5 39.7-7.3C180.7 306 217.5 320 256 320s75.3-14 104.3-39.3c12.6 4.8 26 7.3 39.7 7.3 61.8 0 112-50.3 112-112S461.7 64 400 64zm0 192c-17 0-33-5.5-46-14.7-23.4 28.3-58.4 46.7-98 46.7s-74.6-18.4-98-46.7c-13 9.2-29 14.7-46 14.7-44.2 0-80-35.8-80-80s35.8-80 80-80c10.8 0 21 2.2 30.4 6 21.3-41.3 64-70 113.6-70s92.3 28.7 113.5 70c9.4-3.8 19.7-6 30.5-6 44.2 0 80 35.8 80 80s-35.8 80-80 80zM225 480c0 17.7 14.3 32 32 32s32-14.3 32-32-32-64-32-64-32 46.3-32 64zm127-32c0 17.7 14.3 32 32 32s32-14.3 32-32-32-64-32-64-32 46.3-32 64zM96 384c0 17.7 14.3 32 32 32s32-14.3 32-32-32-64-32-64-32 46.3-32 64z"/></svg>