<svg xmlns="http://www.w3.org/2000/svg" viewBox="0 0 512 512"><path fill="#da2a1d" d="M400 64c-5.3 0-10.6.4-15.8 1-30-40.6-77-65-128.2-65s-98.3 24.4-128.2 65c-5.2-.6-10.5-1-15.8-1C50.2 64 0 114.3 0 176s50.3 112 112 112c13.7 0 27-2.5 39.7-7.3C180.7 306 217.5 320 256 320s75.3-14 104.3-39.3c12.6 4.8 26 7.3 39.7 7.3 61.8 0 112-50.3 112-112S461.7 64 400 64zm0 192c-9.7 0-19.2-1.8-28.3-5.2l-18-7-14.4 12.7C316 276.8 286.3 288 256 288s-60-11.2-83.3-31.5L158.3 244l-18 6.8c-9 3.5-18.6 5.2-28.3 5.2-44 0-80-36-80-80s36-80 80-80c3.8 0 7.5.3 11.3.8l19 2.7L153.5 84C178 51 215.2 32 256 32c40.8 0 78 19 102.4 52l11.4 15.5 19-2.7c3.7-.5 7.4-.8 11.2-.8 44 0 80 36 80 80s-36 80-80 80zM96 320c-17.7 0-32 14.3-32 32s14.3 32 32 32 32-14.3 32-32-14.3-32-32-32zm160 32c-17.7 0-32 14.3-32 32s14.3 32 32 32 32-14.3 32-32-14.3-32-32-32zm160-32c-17.7 0-32 14.3-32 32s14.3 32 32 32 32-14.3 32-32-14.3-32-32-32zm-64 128c-17.7 0-32 14.3-32 32s14.3 32 32 32 32-14.3 32-32-14.3-32-32-32zm-192 0c-17.7 0-32 14.3-32 32s14.3 32 32 32 32-14.3 32-32-14.3-32-32-32z"/></svg>